<svg width="24" height="24" viewBox="0 0 24 24" fill="none" xmlns="http://www.w3.org/2000/svg">
<g id="Icon / Outlined / Like">
<path id="Vector" d="M21.8175 12.2679C22.2476 11.6995 22.4856 11.0032 22.4856 10.2786C22.4856 9.12914 21.8431 8.04109 20.8088 7.43433C20.5425 7.27815 20.2393 7.19595 19.9306 7.19624H13.7914L13.945 4.04984C13.9809 3.28948 13.7121 2.56752 13.1898 2.01709C12.9335 1.74579 12.6243 1.52993 12.2812 1.38286C11.9382 1.23578 11.5687 1.16062 11.1955 1.16201C9.86419 1.16201 8.68653 2.05805 8.33323 3.34068L6.13407 11.3027H2.82382C2.37068 11.3027 2.00458 11.6688 2.00458 12.1219V21.4408C2.00458 21.894 2.37068 22.2601 2.82382 22.2601H18.2179C18.4534 22.2601 18.6838 22.214 18.8963 22.1218C20.115 21.6021 20.9009 20.4116 20.9009 19.0906C20.9009 18.768 20.8548 18.4506 20.7627 18.1434C21.1928 17.575 21.4309 16.8787 21.4309 16.1541C21.4309 15.8316 21.3848 15.5141 21.2926 15.2069C21.7227 14.6385 21.9608 13.9422 21.9608 13.2177C21.9557 12.8951 21.9096 12.5751 21.8175 12.2679ZM3.84787 20.4168V13.146H5.92158V20.4168H3.84787ZM20.1406 11.3795L19.5799 11.8659L19.9358 12.5162C20.053 12.7304 20.1138 12.9709 20.1124 13.2151C20.1124 13.6375 19.9281 14.0395 19.6106 14.316L19.0499 14.8024L19.4058 15.4527C19.523 15.6669 19.5838 15.9074 19.5825 16.1516C19.5825 16.574 19.3981 16.976 19.0807 17.2524L18.52 17.7389L18.8759 18.3891C18.9931 18.6033 19.0539 18.8439 19.0525 19.0881C19.0525 19.6615 18.7146 20.1787 18.1923 20.4142H7.56007V13.0641L10.1074 3.83479C10.1731 3.59823 10.3141 3.38953 10.509 3.24031C10.704 3.09109 10.9423 3.00949 11.1878 3.00786C11.3823 3.00786 11.5744 3.06419 11.728 3.17939C11.9814 3.36884 12.1171 3.65558 12.1017 3.96023L11.856 9.03954H19.905C20.3607 9.31859 20.6423 9.78966 20.6423 10.2786C20.6423 10.7011 20.458 11.1004 20.1406 11.3795Z" fill="white"/>
</g>
</svg>
