<svg width="24" height="24" viewBox="0 0 24 24" fill="none" xmlns="http://www.w3.org/2000/svg">
<g id="Icon / Outlined / Setting">
<path id="Vector" d="M21.8089 14.3295L20.2997 13.0392C20.3712 12.6014 20.408 12.1544 20.408 11.7074C20.408 11.2604 20.3712 10.8134 20.2997 10.3757L21.8089 9.08536C21.9228 8.98791 22.0042 8.85811 22.0425 8.71324C22.0808 8.56836 22.0741 8.41526 22.0232 8.27431L22.0025 8.2144C21.587 7.05318 20.9648 5.97672 20.1661 5.03702L20.1246 4.98863C20.0277 4.8747 19.8986 4.7928 19.7542 4.75372C19.6098 4.71465 19.457 4.72023 19.3159 4.76974L17.4426 5.43563C16.7514 4.86882 15.9795 4.42182 15.1454 4.10846L14.7837 2.14995C14.7564 2.00259 14.6849 1.86701 14.5787 1.76124C14.4725 1.65547 14.3367 1.58452 14.1892 1.5578L14.127 1.54628C12.9265 1.32969 11.6639 1.32969 10.4634 1.54628L10.4012 1.5578C10.2538 1.58452 10.1179 1.65547 10.0117 1.76124C9.90554 1.86701 9.83406 2.00259 9.80677 2.14995L9.44271 4.11767C8.61528 4.4311 7.84473 4.87786 7.16164 5.44024L5.27456 4.76974C5.13347 4.71984 4.98053 4.71405 4.83608 4.75315C4.69162 4.79225 4.56248 4.87438 4.46582 4.98863L4.42434 5.03702C3.62653 5.97738 3.00449 7.05367 2.58796 8.2144L2.56722 8.27431C2.46354 8.56232 2.54879 8.8849 2.7815 9.08536L4.30914 10.3895C4.23771 10.8227 4.20315 11.2651 4.20315 11.7051C4.20315 12.1475 4.23771 12.5899 4.30914 13.0208L2.7815 14.3249C2.66767 14.4224 2.5862 14.5522 2.54792 14.697C2.50964 14.8419 2.51638 14.995 2.56722 15.136L2.58796 15.1959C3.005 16.3572 3.62251 17.4286 4.42434 18.3733L4.46582 18.4217C4.56271 18.5356 4.69186 18.6175 4.83623 18.6566C4.9806 18.6956 5.13343 18.6901 5.27456 18.6405L7.16164 17.97C7.84826 18.5346 8.61554 18.9816 9.44271 19.2926L9.80677 21.2603C9.83406 21.4077 9.90554 21.5433 10.0117 21.649C10.1179 21.7548 10.2538 21.8258 10.4012 21.8525L10.4634 21.864C11.6749 22.0818 12.9155 22.0818 14.127 21.864L14.1892 21.8525C14.3367 21.8258 14.4725 21.7548 14.5787 21.649C14.6849 21.5433 14.7564 21.4077 14.7837 21.2603L15.1454 19.3018C15.9792 18.9893 16.7554 18.5408 17.4426 17.9747L19.3159 18.6405C19.457 18.6904 19.6099 18.6962 19.7544 18.6571C19.8988 18.618 20.028 18.5359 20.1246 18.4217L20.1661 18.3733C20.9679 17.4263 21.5854 16.3572 22.0025 15.1959L22.0232 15.136C22.1269 14.8526 22.0416 14.53 21.8089 14.3295ZM18.6638 10.6475C18.7214 10.9955 18.7514 11.3526 18.7514 11.7097C18.7514 12.0669 18.7214 12.424 18.6638 12.7719L18.5117 13.6959L20.2329 15.1682C19.972 15.7694 19.6426 16.3384 19.2514 16.8641L17.1131 16.106L16.3896 16.7005C15.839 17.1521 15.2261 17.5069 14.5625 17.7558L13.6846 18.0853L13.2722 20.3202C12.6214 20.394 11.9644 20.394 11.3137 20.3202L10.9012 18.0806L10.0303 17.7465C9.37359 17.4977 8.763 17.1429 8.21692 16.6936L7.49343 16.0968L5.34138 16.8618C4.94968 16.3341 4.6225 15.765 4.35983 15.1659L6.09944 13.6798L5.94967 12.7581C5.89437 12.4148 5.86442 12.06 5.86442 11.7097C5.86442 11.3572 5.89207 11.0047 5.94967 10.6614L6.09944 9.73973L4.35983 8.25357C4.62019 7.65219 4.94968 7.08538 5.34138 6.55774L7.49343 7.3227L8.21692 6.72594C8.763 6.27663 9.37359 5.9218 10.0303 5.67295L10.9035 5.34347L11.316 3.10386C11.9634 3.03013 12.6247 3.03013 13.2745 3.10386L13.6869 5.33886L14.5648 5.66835C15.2261 5.91719 15.8413 6.27203 16.3919 6.72363L17.1154 7.3181L19.2537 6.56004C19.6454 7.08768 19.9725 7.6568 20.2352 8.25587L18.514 9.72821L18.6638 10.6475ZM12.2975 7.42409C10.0579 7.42409 8.24227 9.23973 8.24227 11.4793C8.24227 13.7189 10.0579 15.5346 12.2975 15.5346C14.5371 15.5346 16.3528 13.7189 16.3528 11.4793C16.3528 9.23973 14.5371 7.42409 12.2975 7.42409ZM14.1224 13.3042C13.883 13.5442 13.5986 13.7346 13.2854 13.8643C12.9722 13.994 12.6365 14.0605 12.2975 14.06C11.6086 14.06 10.9611 13.7904 10.4727 13.3042C10.2326 13.0649 10.0423 12.7804 9.91258 12.4672C9.78288 12.154 9.71638 11.8183 9.7169 11.4793C9.7169 10.7904 9.98649 10.1429 10.4727 9.65447C10.9611 9.166 11.6086 8.89872 12.2975 8.89872C12.9865 8.89872 13.6339 9.166 14.1224 9.65447C14.3624 9.89382 14.5528 10.1783 14.6825 10.4914C14.8122 10.8046 14.8787 11.1404 14.8781 11.4793C14.8781 12.1683 14.6086 12.8157 14.1224 13.3042Z" fill="white"/>
</g>
</svg>
