<svg width="24" height="24" viewBox="0 0 24 24" fill="none" xmlns="http://www.w3.org/2000/svg">
<g id="Icon / Outlined / User">
<path id="Vector" d="M20.1205 17.8969C19.6784 16.8496 19.0368 15.8984 18.2315 15.0961C17.4286 14.2915 16.4775 13.65 15.4307 13.207C15.4213 13.2023 15.4119 13.2 15.4026 13.1953C16.8627 12.1406 17.8119 10.4227 17.8119 8.48438C17.8119 5.27344 15.2104 2.67188 11.9994 2.67188C8.78851 2.67188 6.18695 5.27344 6.18695 8.48438C6.18695 10.4227 7.13617 12.1406 8.59632 13.1977C8.58695 13.2023 8.57757 13.2047 8.5682 13.2094C7.5182 13.6523 6.57601 14.2875 5.76742 15.0984C4.96283 15.9013 4.32133 16.8524 3.87835 17.8992C3.44317 18.924 3.20847 20.0228 3.18695 21.1359C3.18632 21.161 3.19071 21.1858 3.19985 21.2091C3.20899 21.2324 3.22271 21.2537 3.24018 21.2716C3.25765 21.2895 3.27854 21.3037 3.3016 21.3134C3.32466 21.3231 3.34943 21.3281 3.37445 21.3281H4.7807C4.88382 21.3281 4.96585 21.2461 4.9682 21.1453C5.01507 19.3359 5.74164 17.6414 7.02601 16.357C8.35492 15.0281 10.1198 14.2969 11.9994 14.2969C13.8791 14.2969 15.644 15.0281 16.9729 16.357C18.2573 17.6414 18.9838 19.3359 19.0307 21.1453C19.033 21.2484 19.1151 21.3281 19.2182 21.3281H20.6244C20.6495 21.3281 20.6742 21.3231 20.6973 21.3134C20.7204 21.3037 20.7412 21.2895 20.7587 21.2716C20.7762 21.2537 20.7899 21.2324 20.799 21.2091C20.8082 21.1858 20.8126 21.161 20.8119 21.1359C20.7885 20.0156 20.5565 18.9258 20.1205 17.8969ZM11.9994 12.5156C10.9237 12.5156 9.91117 12.0961 9.14945 11.3344C8.38773 10.5727 7.9682 9.56016 7.9682 8.48438C7.9682 7.40859 8.38773 6.39609 9.14945 5.63437C9.91117 4.87266 10.9237 4.45312 11.9994 4.45312C13.0752 4.45312 14.0877 4.87266 14.8494 5.63437C15.6112 6.39609 16.0307 7.40859 16.0307 8.48438C16.0307 9.56016 15.6112 10.5727 14.8494 11.3344C14.0877 12.0961 13.0752 12.5156 11.9994 12.5156Z" fill="white"/>
</g>
</svg>
